<svg width="525" height="525" viewBox="0 0 525 525" fill="none" xmlns="http://www.w3.org/2000/svg">
<path fill-rule="evenodd" clip-rule="evenodd" d="M295.063 138.96C294.017 138.199 293.246 137.42 292.77 136.641C291.814 135.113 290.19 133.108 289.139 132.153C287.037 130.339 277.099 128.143 274.806 129.002C273.85 129.384 271.748 127.856 268.881 124.896C265.25 121.076 263.721 120.121 259.994 119.644C257.414 119.262 253.783 119.453 251.49 120.026C247.572 121.076 247.286 121.076 245.566 118.689C241.17 112.577 229.512 110.381 223.11 114.296L219.957 116.302L217.09 113.819C214.892 112.1 213.077 111.432 209.923 111.432C207.343 111.432 205.528 110.954 205.337 110.19C201.706 97.7763 196.832 85.3624 194.443 82.4976C192.246 80.0148 189.379 80.4923 180.874 84.8849C174.663 88.1316 171.319 90.7099 165.203 97.2033C160.999 101.691 156.412 107.421 155.17 109.904C153.832 112.768 152.017 114.774 150.488 115.347C149.054 115.92 146.474 116.97 144.754 117.829C141.983 119.166 140.454 119.262 134.243 118.307C115.228 115.442 97.7411 116.111 93.7278 119.739C90.67 122.413 91.7211 129.861 96.9767 143.708C99.1744 149.437 98.41 151.538 94.0144 151.538C90.1922 151.538 82.93 154.021 79.1078 156.599C75.5722 158.986 70.1256 165.575 70.03 167.389C70.03 168.058 68.8833 168.822 67.45 169.204C59.2322 171.209 53.4989 177.512 52.0656 186.201C51.4922 189.544 50.8233 190.498 47.9567 191.835C46.1411 192.695 43.0833 195.082 41.1722 197.183C38.0189 200.621 37.6366 201.671 37.0633 208.451C36.49 214.562 35.8211 216.663 33.7189 219.337C32.2856 221.151 30.47 224.111 29.61 225.926C27.89 229.459 27.4122 235.093 28.8455 235.952C29.3233 236.239 29.9922 238.053 30.2789 239.867C30.8522 242.637 31.9033 243.878 36.0122 246.552C39.93 249.035 41.2678 250.467 41.7455 252.854C42.51 256.865 50.7278 265.173 53.8811 265.173C55.2189 265.173 57.0344 264.6 58.0855 263.836C61.1433 261.831 65.1567 261.449 68.31 262.976C70.89 264.313 71.0811 264.791 70.5078 267.942C69.7433 272.717 71.3678 280.165 73.6611 282.648C75.2856 284.366 75.4767 285.13 74.5211 286.658C73.9478 287.709 73.5655 291.719 73.5655 295.634C73.7567 302.128 74.0433 303.083 77.2922 307.762C80.35 312.345 80.7322 313.3 80.1589 317.025C79.2989 322.754 82.4522 331.444 87.23 336.314C89.5233 338.701 91.53 342.139 92.6767 345.481C95.2567 353.407 102.328 360.664 108.826 362.001C111.692 362.669 111.883 362.956 113.03 369.545C114.463 377.566 116.47 380.908 122.394 384.632C126.217 387.02 127.746 387.402 133.766 387.402C144.468 387.402 148.672 384.919 153.45 375.943C155.361 372.314 156.221 371.55 159.47 370.977C161.477 370.595 164.343 370.022 165.681 369.736C167.21 369.354 169.312 369.64 171.128 370.595C174.052 372.123 178.132 372.449 182.5 371.639V362.206C182.104 362.306 181.69 362.397 181.257 362.478C176.766 363.338 176.574 363.242 173.612 360.091C171.892 358.277 169.981 356.844 169.408 356.844C168.834 356.844 165.777 358.277 162.719 359.996L157.081 363.051L153.546 361.142C150.201 359.327 150.106 359.327 148.768 361.142C148.003 362.096 147.43 364.102 147.43 365.534C147.43 369.354 144.946 374.51 142.079 376.802C140.263 378.235 138.161 378.807 134.53 378.807C129.848 378.807 129.274 378.521 125.643 374.606C121.917 370.5 120.388 366.298 119.528 357.322C119.241 354.553 118.954 354.457 113.986 353.884C111.023 353.598 107.679 352.834 106.437 352.165C103.57 350.542 99.27 341.088 99.4611 336.791C99.6522 333.64 99.3656 333.258 95.6389 331.539C88.7589 328.388 86.4655 321.035 88.6633 309.385C89.2367 306.043 89.1411 305.184 87.8033 304.706C85.3189 303.751 81.4966 296.398 81.4966 292.674C81.4966 290.764 82.1656 287.709 82.93 285.799C84.4589 282.075 83.79 279.305 81.1144 278.255C79.2033 277.491 77.8655 272.335 78.3433 267.083C78.63 263.454 79.2989 262.308 82.5478 259.443C85.7011 256.769 86.5611 255.146 87.3255 251.326C87.8989 248.08 88.8544 246.074 90.2878 245.12C95.83 241.491 97.55 238.626 98.3144 231.942C98.7922 227.263 99.5567 224.78 101.181 222.87C102.423 221.342 103.57 219.432 103.666 218.573C103.7 217.983 103.786 216.358 103.903 214.121C104.108 210.203 104.413 204.407 104.717 198.997C104.812 195.846 104.43 194.127 103.474 193.554C101.372 192.217 99.6522 194.318 99.6522 198.329C99.6522 200.716 98.7922 203.103 96.7856 205.777C94.3967 209.119 94.11 210.17 94.8744 212.175C96.5944 216.568 96.0211 218.382 92.6767 219.814C91.0522 220.483 89.0456 222.011 88.3767 223.061C87.4211 224.78 87.5167 225.639 89.7145 228.886C91.6256 231.751 92.1033 233.279 91.53 235.284C90.7656 238.531 89.5233 239.39 85.7011 239.39C83.2167 239.39 82.4522 239.963 81.4011 242.446C80.7322 244.069 80.2544 247.029 80.4455 248.939C80.9233 255.433 74.5211 258.011 70.03 253.236C68.7878 251.899 66.7811 250.849 65.6344 250.849C64.4878 250.849 62.1944 251.899 60.6655 253.236C59.0411 254.573 56.9389 255.624 55.8878 255.624C53.0211 255.624 49.0078 250.372 49.0078 246.552C49.0078 242.637 46.9055 240.345 43.37 240.345C38.21 240.345 35.1522 233.47 37.9233 228.122C38.6877 226.594 41.1722 223.729 43.4655 221.915L47.4789 218.573L46.2367 213.321C44.1344 204.822 46.9055 200.621 55.8878 198.806C59.0411 198.233 61.7166 193.65 60.8567 190.307C59.71 185.628 64.7744 178.562 69.9344 177.798C74.5845 177.033 76.3702 176.74 77.2122 175.69C77.7371 175.035 77.8954 174.086 78.1522 172.546C78.9167 168.153 81.9744 164.047 86.7522 161.087C89.3322 159.464 90.8611 159.177 94.11 159.655C97.55 160.228 98.6011 159.941 100.034 158.318C102.519 155.644 102.806 155.74 105.577 159.846C109.877 166.435 115.037 170.636 118.572 170.636C124.497 170.636 136.728 160.228 146.57 146.763C148.29 144.376 150.583 142.944 154.214 141.607C157.081 140.652 160.521 139.029 161.954 138.074C164.248 136.355 165.108 136.355 171.51 137.31C178.581 138.456 198.17 137.883 204.763 136.45L208.108 135.686L208.012 127.57C207.917 122.604 208.299 119.262 208.968 118.88C210.879 117.638 212.026 118.02 214.606 120.981C217.759 124.418 219.957 124.609 223.588 121.554C225.977 119.548 226.741 119.357 231.328 120.121C236.774 120.981 241.552 123.75 242.508 126.615C243.368 129.384 245.47 129.766 251.299 128.047C258.083 126.042 261.141 127.283 265.632 133.586L268.977 138.169L275.092 137.596C282.45 136.832 285.126 138.169 286.75 143.708C287.215 145.312 287.53 146.245 288.192 146.877L295.063 138.96ZM158.323 117.734C156.699 113.628 172.179 95.5799 181.734 90.4234C190.43 85.6488 190.526 85.7443 193.488 92.5242C194.921 95.8664 196.928 101.118 197.979 104.27C200.177 111.05 204.19 130.434 203.521 131.103C202.566 132.058 187.659 133.204 180.397 132.822C171.892 132.44 163.674 130.816 163.674 129.479C163.674 129.002 164.439 128.62 165.49 128.62C167.497 128.62 169.79 126.424 168.739 125.469C168.452 125.087 166.732 124.8 164.917 124.8C161.19 124.8 160.999 123.941 164.152 120.981C165.968 119.357 166.254 118.498 165.49 117.543C164.63 116.493 163.961 116.493 161.668 117.734C159.279 118.975 158.801 118.975 158.323 117.734ZM145.255 124.126C145.66 123.31 146.658 122.788 148.29 121.936C150.392 120.885 152.494 120.026 152.877 120.026C153.928 120.026 155.743 123.081 157.941 128.62L159.852 133.395L156.03 135.304C154.023 136.355 151.634 137.214 150.966 137.214C150.201 137.214 148.672 135.209 147.621 132.631C145.458 127.43 144.618 125.412 145.255 124.126ZM97.4544 126.328C97.2633 124.036 97.7411 123.463 99.9389 122.795C103.283 121.84 115.61 121.076 119.241 121.554C129.848 122.986 136.632 124.132 138.066 124.896C140.646 126.328 140.168 128.429 137.11 128.811C132.714 129.288 133.861 131.962 138.639 132.249C142.748 132.535 142.748 132.631 141.219 134.349C139.117 136.737 139.977 139.506 142.652 138.647C145.232 137.787 145.137 139.888 142.366 143.517C135.199 153.161 121.821 165.957 118.954 165.862C116.757 165.766 110.163 157.745 105.672 149.628C102.423 143.803 97.8367 130.625 97.4544 126.328Z" fill="white"/>
<path d="M253.02 170.92C252.446 170.157 252.016 169.196 251.586 167.867C249.77 162.328 244.037 157.267 239.641 157.267C235.054 157.267 234.863 160.61 239.45 162.519C243.75 164.334 245.852 166.912 246.521 171.209C246.648 172.018 246.789 172.77 246.946 173.465L253.02 170.92Z" fill="white"/>
<path d="M218.141 172.928C218.141 174.742 218.523 176.557 219.097 176.843C219.574 177.13 220.052 178.657 220.052 180.185C220.052 185.533 210.21 187.92 209.159 182.764C207.821 176.079 207.726 171.591 208.968 171.591C209.637 171.591 210.783 172.26 211.452 173.023C213.077 174.933 213.65 174.838 214.797 172.355C216.421 168.822 218.141 169.108 218.141 172.928Z" fill="white"/>
<path d="M135.008 194.032C135.486 195.273 136.728 197.183 137.874 198.329C141.314 201.766 139.881 206.827 134.912 208.355C132.332 209.215 128.51 206.541 127.746 203.294C127.363 201.862 126.408 199.952 125.643 198.997C123.828 196.896 125.548 194.223 127.554 196.228C129.561 198.233 131.186 197.469 131.186 194.509C131.186 190.976 133.67 190.594 135.008 194.032Z" fill="white"/>
<path d="M178.772 193.745C180.301 195.273 180.206 198.806 178.772 201.193C177.721 202.817 177.912 203.39 179.728 205.204C181.734 207.305 182.021 207.305 184.506 205.873C186.512 204.727 186.99 203.772 186.799 201.862C186.512 198.806 188.71 197.469 190.908 199.284C193.392 201.289 192.723 206.541 189.666 208.833C187.468 210.647 186.226 210.838 181.639 210.456C177.243 210.074 175.906 210.265 174.663 211.697C168.739 218.191 157.941 214.849 157.941 206.445C157.941 203.485 158.228 203.103 160.33 203.103C162.337 203.103 162.719 203.581 162.719 205.873C162.719 207.4 163.388 209.119 164.248 209.788C166.35 211.602 170.554 209.883 171.701 206.636C172.466 204.536 172.274 203.676 170.554 201.862C168.07 199.284 167.879 196.228 169.981 194.127C171.701 192.313 177.148 192.122 178.772 193.745Z" fill="white"/>
<path d="M166.063 230.7C172.848 233.852 176.097 239.581 176.097 248.653C176.097 253.141 175.428 255.433 172.657 260.971C169.79 266.51 168.07 268.515 162.528 272.621C155.17 278.064 150.106 279.687 147.621 277.3C145.232 274.913 147.43 271.666 153.641 268.133C162.719 262.976 169.408 254.669 169.408 248.557C169.408 245.692 164.343 239.581 161.286 238.817C158.228 238.053 153.45 240.345 145.423 246.456C139.499 251.04 137.874 251.804 135.008 251.613C132.046 251.326 131.663 251.04 131.663 248.557C131.663 246.074 132.906 244.738 141.41 238.34C154.119 228.79 158.706 227.263 166.063 230.7Z" fill="white"/>
<path d="M447.695 310.08C446.608 311.205 444.783 317.336 442.432 314.477C440.186 303.105 432.229 291.442 434.536 279.295C444.581 279.929 457.1 279.489 465.022 273.798C472.952 268.108 476.04 259.664 477.716 251.344C479.391 243.032 476.189 234.316 472.057 226.725C467.925 219.135 461.477 214.148 455.372 208.272C449.257 202.406 441.133 198.993 434.756 193.76C428.369 188.535 419.553 184.964 413.219 180.171C406.894 175.377 397.7 172.184 392.208 166.054C386.716 159.932 386.041 149.598 376.838 146.282C367.636 142.966 360.188 138.005 350.511 137.495C340.835 136.976 340.458 123.73 331.088 121.795C321.719 119.869 312.78 124.882 314.35 135.05C297.085 137.363 269.644 138.577 266.1 159.677C248.326 170.461 230.246 177.154 211.911 187.145C193.576 197.137 179.461 212.397 177.495 234.439C175.53 256.48 197.383 278.39 220.482 268.741C221.64 282.893 204.007 285.637 198.48 297.696C192.953 309.754 182.689 320.599 185.391 335.586C175.32 340.239 173.337 355.411 174.925 365.429C176.522 375.439 179.531 386.072 186.488 393.416C193.436 400.769 202.55 408.712 213.464 406.83C224.377 404.947 233.378 404.552 241.317 413.206C249.256 421.861 261.977 422.758 273.118 421.782C284.26 420.806 293.69 418.017 305.577 420.023C317.464 422.028 331.448 420.155 343.3 420.023C355.152 419.891 367.153 418.158 378.373 416.487C389.585 414.807 400.419 412.327 410.657 409.275C420.895 406.214 428.246 400.989 436.361 394.586C444.476 388.183 443.335 375.518 452.354 371.041C461.363 366.555 468.32 360.442 472.321 350.6C476.33 340.767 476.286 327.371 471.18 317.318C466.074 307.256 457.056 303.835 447.695 310.08ZM321.368 184.305C329.255 184.463 337.168 184.305 345.055 184.305C355.898 184.305 369.109 182.985 378.461 177.339C387.804 171.683 394.296 181.675 403.174 186.723C412.043 191.781 420.061 196.873 428.597 202.573C437.133 208.272 444.028 212.169 451.862 219.706C459.705 227.235 466.539 233.999 466.995 245.873C467.452 257.747 460.012 266.199 448.573 268.741C445.467 269.427 442.818 269.286 439.8 268.741C432.326 268.231 427.387 264 422.325 258.996C417.272 253.982 416.368 245.688 413.201 239.997C410.025 234.307 414.07 220.12 405.578 219.495C397.086 218.862 401.279 234.131 402.762 239.909C404.244 245.688 406.964 254.739 410.78 260.016C414.596 265.293 418.395 271.599 424.886 274.018C419.614 300.149 438.853 323.369 438.923 349.659C439.212 352.702 439.212 356.352 438.923 359.334C438.923 363.661 438.405 366.837 437.168 370.768C429.036 396.548 405.841 399.837 381.9 405.07C357.959 410.295 324.351 410.524 298.559 409.468C294.024 409.283 289.628 408.052 285.339 407.771C281.049 407.498 277.671 410.919 273.118 411.227C270.074 411.773 267.328 411.711 264.345 411.227C257.59 410.858 250.274 408.334 245.703 402.652C241.133 396.97 238.755 389.784 238.036 382.193C237.317 374.603 238.747 365.385 242.686 358.727C246.616 352.06 253.169 348.868 260.556 350.82C267.942 352.773 265.933 367.426 273.995 365.491C282.066 363.547 276.496 352.526 272.443 347.698C268.39 342.869 259.143 338.287 252.064 339.984C244.984 341.682 240.063 345.64 235.597 351.62C231.132 357.601 228.79 364.814 228.377 372.527C227.965 380.241 232.018 391.675 223.965 394.49C215.92 397.313 208.805 396.425 201.857 392.959C194.909 389.494 192.26 383.926 189.102 377.602C185.944 371.278 185.338 359.607 185.391 353.177C185.444 346.748 195.822 337.073 201.375 342.429C206.928 347.786 201.55 357.821 205.551 366.388C209.542 374.964 217.999 370.223 214.534 360.9C211.069 351.577 212.964 344.197 213.464 335.586C213.964 326.976 215.938 319.684 217.841 311.83C219.745 303.975 222.114 298.382 225.14 291.002C228.158 283.614 231.413 278.609 231.009 270.5C230.649 268.275 230.702 266.498 231.009 264.343C231.281 256.348 232.518 247.755 236.211 240.534C239.896 233.304 239.598 227.288 246.581 221.026C253.564 214.772 247.8 206.179 240.44 213.11C233.079 220.04 234.062 223.594 229.325 230.991C224.579 238.379 225.561 246.154 222.236 253.789C218.92 261.423 206.963 260.966 200.577 257.914C194.181 254.87 188.523 248.028 188.023 240.595C187.567 238.045 187.619 236.039 188.023 233.559C189.023 215.097 206.27 202.247 221.429 194.05C236.589 185.861 255.66 178.675 270.486 169.352C283.76 182.229 303.682 182.695 321.368 184.305ZM195.041 331.189C197.304 319.579 203.156 309.156 209.955 299.525C210.595 305.655 207.226 311.909 206.445 318.875C205.673 325.841 204.665 335.542 195.041 331.189ZM449.45 360.214C449.801 352.773 448.415 338.577 446.529 332.358C444.643 326.131 454.819 314.381 459.758 319.095C464.688 323.818 466.259 336.396 463.679 342.816C461.1 349.237 456.802 357.927 449.45 360.214Z" fill="white"/>
<path d="M321.368 184.305C329.255 184.463 337.168 184.305 345.055 184.305C337.615 185.026 328.755 185.202 321.368 184.305Z" fill="white"/>
<path d="M279.259 215.968C272.004 213.901 268.135 224.21 275.162 227.112C282.18 230.015 285.935 217.868 279.259 215.968Z" fill="white"/>
<path d="M378.391 223.005C371.338 220.357 366.618 229.619 373.066 233.621C379.505 237.623 384.707 225.379 378.391 223.005Z" fill="white"/>
<path d="M328.386 237.957C334.238 237.016 337.457 228.115 331.904 227.394C326.342 226.672 317.578 224.447 316.175 229.971C314.762 235.503 326.878 236.523 322.044 242.152C317.21 247.781 319.929 249.769 310.85 251.141C301.77 252.522 310.551 241.185 307.402 238.775C304.244 236.365 297.261 243.859 299.463 249.365C301.656 254.879 306.253 257.395 312.595 256.427C318.938 255.451 321.21 253.666 325.755 249.391C330.062 256.199 340.045 259.734 347.467 256.207C354.889 252.68 352.599 237.341 343.3 239.716C346.914 245.926 345.309 253.296 337.361 250.948C329.413 248.599 330.931 243.727 328.386 237.957Z" fill="white"/>
<path d="M188.023 240.595C187.865 238.309 187.9 235.846 188.023 233.559C187.619 236.039 187.567 238.045 188.023 240.595Z" fill="white"/>
<path d="M231.009 270.5C230.913 268.477 230.939 266.375 231.009 264.343C230.702 266.498 230.649 268.275 231.009 270.5Z" fill="white"/>
<path d="M448.573 268.741C445.801 269.022 442.581 268.934 439.8 268.741C442.818 269.286 445.467 269.427 448.573 268.741Z" fill="white"/>
<path d="M347.686 269.62C339.449 268.284 331.159 270.957 325.535 276.437C319.912 281.925 317.14 289.498 317.868 296.878C318.596 304.257 322.737 310.546 327.579 315.286C332.431 320.018 337.098 326.175 343.23 328.62C349.353 331.065 355.599 340.213 363.407 336.396C371.215 332.57 359.459 324.311 353.897 323.202C348.336 322.094 341.931 315.295 337.378 311.619C332.817 307.942 326.623 298.654 327.571 292.55C328.527 286.446 335.615 278.97 342.414 279.304C349.213 279.63 356.047 283.966 361.942 287.871C367.846 291.767 372.645 295.796 379.198 299.595C385.76 303.386 395.217 295.664 383.391 290.114C371.557 284.573 360.916 271.775 347.686 269.62Z" fill="white"/>
<path d="M447.695 310.08C446.608 311.205 444.783 317.336 442.432 314.477C442.853 313.096 446.344 310.977 447.695 310.08Z" fill="white"/>
<path d="M438.923 349.659C439.212 352.702 439.212 356.352 438.923 359.334C438.923 356.106 438.923 352.887 438.923 349.659Z" fill="white"/>
<path d="M273.118 411.227C270.267 411.421 267.197 411.386 264.345 411.227C267.328 411.711 270.074 411.773 273.118 411.227Z" fill="white"/>
</svg>
