<svg width="100" height="100" fill="white" viewBox="0 0 100 100" xmlns="http://www.w3.org/2000/svg">
<path d="M0 0V100H100V0H0ZM55 74.5C55 83 50.6 90 40.8 90C34.1 90 29.6 87.4 26.5 82L33.3 77C34.9 80 37.2 81.4 39.5 81.4C43.1 81.4 45 79.6 45 73.7V45H55V74.5ZM75.8 90C70 90 63.9 87.8 59.4 83.6L65.1 76.8C68.3 79.5 72.4 81.4 76.1 81.4C80.3 81.4 82.3 79.8 82.3 77.1C82.3 74.3 79.8 73.4 75.9 71.8L70 69.4C65.4 67.6 61.1 63.8 61.1 57.3C61.1 50 67.6 44.2 76.9 44.2C82 44.2 87.4 46.2 91.2 50L86.1 56.3C83.2 54.1 80.5 52.8 76.9 52.8C73.4 52.8 71.3 54.3 71.3 56.8C71.3 59.5 74.2 60.5 78 62L83.7 64.3C89.1 66.5 92.5 70.1 92.5 76.3C92.5 83.6 86.4 90 75.8 90Z"/>
</svg>
