<svg width="304" height="311" viewBox="0 0 304 311" fill="none" xmlns="http://www.w3.org/2000/svg">
<path d="M273.259 188.69C272.171 189.816 270.346 195.946 267.995 193.088C265.749 181.715 257.792 170.053 260.099 157.906C270.144 158.539 282.663 158.1 290.585 152.409C298.515 146.718 301.603 138.275 303.279 129.954C304.954 121.642 301.752 112.926 297.62 105.336C293.488 97.7452 287.041 92.7582 280.935 86.8828C274.82 81.0162 266.697 77.6036 260.319 72.3703C253.932 67.1458 245.116 63.5748 238.782 58.7813C232.457 53.9878 223.263 50.7951 217.771 44.6646C212.279 38.543 211.604 28.2083 202.401 24.8924C193.199 21.5765 185.751 16.6159 176.074 16.1058C166.398 15.5868 166.021 2.34089 156.651 0.405893C147.282 -1.52031 138.343 3.4931 139.913 13.6606C122.648 15.9738 95.2073 17.1876 91.6631 38.2879C73.8896 49.0711 55.809 55.7645 37.474 65.7561C19.139 75.7478 5.02369 91.0079 3.0586 113.049C1.09351 135.091 22.9464 157 46.045 147.352C47.203 161.503 29.5698 164.248 24.043 176.306C18.5161 188.365 8.25205 199.21 10.9541 214.197C0.882962 218.85 -1.09967 234.022 0.488189 244.04C2.08482 254.049 5.09387 264.683 12.0506 272.027C18.9986 279.38 28.1135 287.322 39.0268 285.44C49.94 283.558 58.9409 283.162 66.8802 291.817C74.8195 300.472 87.54 301.369 98.6813 300.392C109.823 299.416 119.253 296.628 131.14 298.633C143.027 300.639 157.011 298.765 168.863 298.633C180.715 298.501 192.716 296.769 203.936 295.098C215.148 293.418 225.982 290.937 236.22 287.885C246.458 284.825 253.809 279.6 261.924 273.197C270.039 266.794 268.899 254.128 277.917 249.651C286.926 245.166 293.883 239.053 297.884 229.211C301.893 219.378 301.849 205.982 296.743 195.929C291.637 185.867 282.619 182.445 273.259 188.69ZM150.44 10.1425C160.389 8.08432 157.818 21.7701 162.529 25.2882C167.24 28.8064 178.671 25.0771 184.365 28.9032C190.058 32.7292 198.436 32.1575 202.419 38.9476C206.402 45.7377 196.418 49.0711 189.856 50.54C183.285 52 171.995 53.0115 164.477 53.2402C156.959 53.4689 145.282 53.0731 138.159 52.3606C131.035 51.6482 120.675 49.3438 114.762 47.6727C108.849 46.0015 98.1725 41.4367 103.287 35.8692C108.401 30.2928 114.656 28.3754 122.087 26.5724C129.509 24.7693 136.755 22.3418 144.519 26.6339C152.283 30.9349 154.081 15.9035 150.44 10.1425ZM146.931 62.9152C154.818 63.0735 162.731 62.9152 170.618 62.9152C181.461 62.9152 194.672 61.5959 204.024 55.9492C213.367 50.2937 219.859 60.2853 228.737 65.3339C237.606 70.3913 245.624 75.4839 254.16 81.1833C262.696 86.8828 269.592 90.7792 277.426 98.3169C285.268 105.846 292.102 112.61 292.559 124.483C293.015 136.357 285.575 144.81 274.136 147.352C271.03 148.038 268.381 147.897 265.363 147.352C257.889 146.841 252.95 142.611 247.888 137.606C242.835 132.593 241.931 124.299 238.764 118.608C235.588 112.917 239.633 98.7303 231.141 98.1058C222.649 97.4725 226.842 112.741 228.325 118.52C229.807 124.299 232.527 133.349 236.343 138.626C240.159 143.904 243.958 150.21 250.449 152.629C245.177 178.76 264.416 201.98 264.486 228.27C264.775 231.313 264.775 234.963 264.486 237.945C264.486 242.272 263.968 245.447 262.731 249.379C254.599 275.158 231.404 278.448 207.463 283.681C183.522 288.906 149.914 289.134 124.122 288.079C119.587 287.894 115.192 286.663 110.902 286.381C106.612 286.109 103.234 289.53 98.6813 289.838C95.6372 290.383 92.8913 290.322 89.9086 289.838C83.1536 289.469 75.8371 286.944 71.2665 281.262C66.696 275.58 64.3185 268.395 63.5992 260.804C62.8798 253.214 64.3098 243.996 68.2487 237.338C72.1789 230.671 78.7321 227.478 86.1188 229.431C93.5054 231.383 91.4965 246.037 99.5586 244.102C107.629 242.158 102.059 231.137 98.0058 226.308C93.9528 221.48 84.7064 216.897 77.6268 218.595C70.5472 220.292 65.6257 224.25 61.1604 230.231C56.6951 236.212 54.3527 243.424 53.9404 251.138C53.5281 258.852 57.5811 270.286 49.5277 273.1C41.4831 275.924 34.3685 275.035 27.4205 271.57C20.4725 268.104 17.8231 262.537 14.6649 256.213C11.5067 249.889 10.9014 238.217 10.9541 231.788C11.0067 225.358 21.3848 215.683 26.938 221.04C32.4911 226.396 27.1134 236.432 31.1138 244.999C35.1054 253.574 43.5623 248.834 40.097 239.51C36.6318 230.187 38.5267 222.808 39.0268 214.197C39.5268 205.586 41.5007 198.295 43.4044 190.44C45.308 182.586 47.6767 176.992 50.7033 169.613C53.7211 162.225 56.9758 157.22 56.5722 149.111C56.2125 146.885 56.2652 145.109 56.5722 142.954C56.8442 134.959 58.0811 126.366 61.7745 119.145C65.459 111.915 65.1607 105.899 72.1438 99.6362C79.1269 93.3826 73.3632 84.7895 66.0029 91.7203C58.6426 98.6511 59.6251 102.204 54.8879 109.601C50.1418 116.99 51.1244 124.765 47.7995 132.399C44.4834 140.034 32.5262 139.576 26.1396 136.524C19.7443 133.481 14.0859 126.638 13.5859 119.206C13.1297 116.655 13.1823 114.65 13.5859 112.17C14.586 93.7081 31.8331 80.8579 46.9924 72.6606C62.1517 64.472 81.2236 57.2861 96.0495 47.9629C109.323 60.8395 129.245 61.3056 146.931 62.9152ZM20.604 209.799C22.8674 198.189 28.7188 187.767 35.5177 178.136C36.1581 184.266 32.7894 190.52 32.0086 197.486C31.2366 204.452 30.2277 214.153 20.604 209.799ZM275.013 238.824C275.364 231.383 273.978 217.187 272.092 210.969C270.206 204.742 280.382 192.991 285.321 197.706C290.251 202.429 291.822 215.006 289.242 221.427C286.663 227.848 282.365 236.537 275.013 238.824Z" fill="white"/>
<path d="M104.822 94.5788C97.5671 92.5119 93.6984 102.82 100.725 105.723C107.744 108.625 111.498 96.4787 104.822 94.5788Z" fill="white"/>
<path d="M203.954 101.615C196.901 98.9678 192.181 108.229 198.629 112.231C205.068 116.233 210.27 103.99 203.954 101.615Z" fill="white"/>
<path d="M153.949 116.568C159.801 115.626 163.02 106.725 157.467 106.004C151.905 105.283 143.141 103.058 141.738 108.581C140.325 114.114 152.441 115.134 147.607 120.763C142.773 126.392 145.493 128.38 136.413 129.752C127.333 131.133 136.115 119.795 132.965 117.385C129.807 114.976 122.824 122.469 125.026 127.975C127.219 133.49 131.816 136.005 138.159 135.038C144.501 134.062 146.773 132.276 151.318 128.002C155.625 134.809 165.608 138.345 173.03 134.818C180.452 131.291 178.162 115.952 168.863 118.327C172.477 124.536 170.872 131.907 162.924 129.558C154.976 127.21 156.494 122.337 153.949 116.568Z" fill="white"/>
<path d="M173.249 148.231C165.012 146.894 156.722 149.568 151.098 155.048C145.475 160.536 142.703 168.109 143.431 175.488C144.159 182.868 148.3 189.156 153.142 193.897C157.994 198.629 162.661 204.786 168.793 207.231C174.916 209.676 181.163 218.823 188.97 215.006C196.778 211.18 185.022 202.921 179.461 201.813C173.899 200.705 167.495 193.906 162.942 190.229C158.38 186.553 152.186 177.265 153.134 171.161C154.09 165.057 161.178 157.581 167.977 157.915C174.776 158.24 181.61 162.576 187.505 166.482C193.409 170.378 198.208 174.406 204.761 178.206C211.323 181.997 220.78 174.274 208.955 168.724C197.12 163.183 186.479 150.386 173.249 148.231Z" fill="white"/>
</svg>
