<svg width="259" height="12" viewBox="0 0 259 12" fill="none" xmlns="http://www.w3.org/2000/svg">
<path fill-rule="evenodd" clip-rule="evenodd" d="M86.4312 11.8537C86.4766 11.9474 86.5 12 86.5 12C86.5 12 86.4763 11.9478 86.4312 11.8537ZM129.373 5.49733C125.848 4.30633 118.651 2.7948 104.5 2.5C94.0805 2.28293 86.0171 4.04491 80.2278 6.10848C80.6976 6.35506 81.1267 6.5 81.5 6.5C83.7566 6.5 86.0131 10.981 86.4312 11.8537C86.0561 11.0799 84.1758 7.5 81.5 7.5C80.7781 7.5 79.9405 7.12365 79.0288 6.55208C72.2919 9.1375 69 12 69 12H50L69 10.5C69 10.5 72.1768 8.11739 77.8278 5.73021C77.3412 5.3755 76.8404 4.99087 76.3306 4.59941C75.6517 4.07803 74.957 3.54451 74.259 3.05337C72.9795 3.42808 71.66 3.94324 70.3926 4.43811L70.3925 4.43814C68.3231 5.24613 66.3923 6 65 6H0C0 6 62.5 4.5 65 4.5C66.1931 4.5 67.9555 3.81677 69.7982 3.10241C70.7652 2.72756 71.7542 2.34413 72.6947 2.04636C71.598 1.41995 70.5167 1 69.5 1H58.5C58.5 1 68 0 71 0C71.9734 0 73.1574 0.684321 74.3982 1.60888C74.7871 1.53929 75.1567 1.5 75.5 1.5C78.3005 1.5 86.7655 2.37144 87.8787 2.48733C92.6863 1.38407 98.2792 0.710661 104.5 1C118.166 1.63564 125.772 3.88741 129.5 5.44395C133.228 3.88741 140.834 1.63564 154.5 1C160.721 0.710661 166.314 1.38407 171.121 2.48733C172.235 2.37144 180.699 1.5 183.5 1.5C183.843 1.5 184.213 1.53929 184.602 1.60888C185.843 0.684319 187.027 0 188 0C191 0 200.5 1 200.5 1H189.5C188.483 1 187.402 1.41995 186.305 2.04636C187.246 2.34411 188.235 2.72752 189.202 3.10236L189.202 3.10241C191.045 3.81677 192.807 4.5 194 4.5C196.5 4.5 259 6 259 6H194C192.608 6 190.677 5.24613 188.608 4.43814L188.607 4.43807C187.34 3.94322 186.021 3.42807 184.741 3.05337C184.043 3.54451 183.348 4.07803 182.669 4.59941C182.16 4.99087 181.659 5.3755 181.172 5.73021C186.823 8.11739 190 10.5 190 10.5L209 12H190C190 12 186.708 9.1375 179.971 6.55208C179.06 7.12365 178.222 7.5 177.5 7.5C174.824 7.5 172.944 11.0799 172.569 11.8537C172.524 11.9478 172.5 12 172.5 12C172.5 12 172.523 11.9474 172.569 11.8537C172.987 10.981 175.243 6.5 177.5 6.5C177.873 6.5 178.302 6.35506 178.772 6.10848C172.983 4.04491 164.919 2.28293 154.5 2.5C140.349 2.7948 133.152 4.30634 129.627 5.49733C130.167 5.72592 130.622 5.93862 131 6.12786C132.142 6.64249 132.5 7 132.5 7C132.5 7 132.051 6.65488 131 6.12786C130.601 5.94839 130.108 5.74982 129.5 5.54064C128.892 5.74982 128.399 5.94839 128 6.12786C126.949 6.65488 126.5 7 126.5 7C126.5 7 126.858 6.64249 128 6.12786C128.378 5.93862 128.833 5.72592 129.373 5.49733ZM180.064 5.27522C177.524 4.26228 174.543 3.27595 171.176 2.5H181.5C182.055 2.5 182.64 2.56749 183.242 2.68372C182.927 2.94377 182.611 3.20881 182.298 3.4719C181.527 4.11926 180.771 4.75483 180.064 5.27522ZM76.7018 3.4719C77.4725 4.11926 78.2292 4.75483 78.9361 5.27522C81.4759 4.26228 84.4565 3.27595 87.8236 2.5H77.5C76.9445 2.5 76.3602 2.56749 75.7576 2.68373C76.073 2.94377 76.3886 3.20881 76.7018 3.4719Z" fill="#6B5439"/>
</svg>
