<svg width="100" height="100" viewBox="0 0 100 100" fill="none" xmlns="http://www.w3.org/2000/svg">
<g clip-path="url(#clip0_61_52)">
<path fill-rule="evenodd" clip-rule="evenodd" d="M16.4235 7.7939C18.6087 5.43023 20.5271 2.81632 22.131 0H21.1146C18.7127 4.10098 15.6246 7.75132 12.0079 10.7934L11.9869 10.7724L11.7539 11.0054C8.27039 13.8885 4.30642 16.2116 0 17.8366V18.7761C2.74877 17.7635 5.36321 16.4733 7.80932 14.9395L17.3297 49.8612C14.0058 50.6067 10.5488 51 7 51H3V52H7C10.6398 52 14.1851 51.5949 17.593 50.8272L27.7579 88.1134L28.5898 87.8866L18.4329 50.63C26.3849 48.687 33.5601 44.7629 39.4057 39.4105L76.9028 76.9075L77.5124 76.2979L40.0367 38.8222C45.9469 33.2132 50.4304 26.1156 52.8865 18.1299L96.7344 29.4882L96.9506 28.6536L53.1327 17.303C54.3486 13.0788 55 8.61545 55 3.99999V3H54V3.99999C54 8.52885 53.3594 12.9081 52.164 17.0521L16.4235 7.7939ZM15.7467 8.50921C14.7583 9.52988 13.7188 10.5008 12.6325 11.418L39.3293 38.1148C45.1151 32.63 49.5067 25.6891 51.9172 17.8788L15.7467 8.50921ZM38.6979 38.7026L11.965 11.9698C10.8767 12.8513 9.74364 13.6797 8.56984 14.4512L18.1697 49.6647C25.9512 47.7679 32.9739 43.9339 38.6979 38.7026Z" fill="url(#paint0_radial_61_52)"/>
<path fill-rule="evenodd" clip-rule="evenodd" d="M71.5472 0H79L78.9949 0.00100722C69.4206 0.00153652 60.3155 1.50075 52.0777 4.20143C28.3529 11.0025 9.80387 29.9199 3.66714 53.7682C1.30275 61.556 9.72365e-05 70.0741 0 79V71.04C3.71508e-06 31.8057 32.0328 -3.42997e-06 71.5472 0Z" fill="#4D3927"/>
<path d="M7 6H14L18 17.5L7 13V6Z" fill="#3E2D1D"/>
<path d="M92.7601 0C86.7118 1.71295 80.7863 3.71845 75 6.00023C82.9208 3.34312 91.222 1.31837 99.8156 0H92.7601Z" fill="#3E2D1D"/>
<path d="M-7.7632e-07 92.7601C1.71295 86.7118 3.71845 80.7863 6.00023 75C3.34312 82.9208 1.31837 91.222 -1.08473e-06 99.8156L-7.7632e-07 92.7601Z" fill="#3E2D1D"/>
</g>
<defs>
<radialGradient id="paint0_radial_61_52" cx="0" cy="0" r="1" gradientUnits="userSpaceOnUse" gradientTransform="translate(11.8084 10.5199) rotate(44.8158) scale(94.8013 105.258)">
<stop stop-color="#4D3927" stop-opacity="0.81"/>
<stop offset="1" stop-color="#4D3927" stop-opacity="0"/>
</radialGradient>
<clipPath id="clip0_61_52">
<rect width="100" height="100" fill="white"/>
</clipPath>
</defs>
</svg>
